<?xml version="1.0" encoding="UTF-8"?>
<svg id="Layer_2" data-name="Layer 2" xmlns="http://www.w3.org/2000/svg" viewBox="0 0 663.13 169.36">
  <defs>
    <style>
      .cls-1 {
        fill: #fff;
      }

      .cls-2 {
        fill: #676767;
      }

      .cls-3 {
        fill: #31aa72;
      }

      .cls-4 {
        fill: #32ad72;
      }
    </style>
  </defs>
  <g id="Layer_1-2" data-name="Layer 1">
    <g>
      <g>
        <path class="cls-2" d="M114.86,79.24v13.42H26.39c-13.98,0-25.36-11.37-25.36-25.36V27.61C1.03,13.63,12.41,2.25,26.39,2.25h40.17v2.49c-2.46,0-4.45,2-4.45,4.45s2,4.45,4.45,4.45v2.01H26.39c-6.58,0-11.94,5.36-11.94,11.94v39.69c0,6.58,5.36,11.94,11.94,11.94H114.86Z"/>
        <path class="cls-2" d="M166.99,27.61v23.91h-3.21c-.6-1.75-2.26-3.02-4.21-3.02s-3.62,1.27-4.21,3.02h-1.78V27.61c0-6.58-5.35-11.94-11.94-11.94h-39.21v-2.17c1.88-.52,3.26-2.25,3.26-4.29s-1.38-3.77-3.26-4.29V2.25h39.21c13.98,0,25.36,11.37,25.36,25.36Z"/>
        <path class="cls-2" d="M166.99,104.69v38.16c0,13.98-11.37,25.36-25.36,25.36h-38.26v-2.27c1.56-.69,2.66-2.25,2.66-4.07s-1.09-3.39-2.66-4.07v-2.99h38.26c6.59,0,11.94-5.36,11.94-11.94v-38.16c0-6.59-5.35-11.94-11.94-11.94h-4.3v-13.41h4.3c13.98,0,25.36,11.37,25.36,25.36Z"/>
        <path class="cls-2" d="M66.08,154.8v2.69c-2.06,.39-3.62,2.2-3.62,4.37s1.56,3.98,3.62,4.37v1.97H26.39c-13.98,0-25.36-11.37-25.36-25.36v-22.95H3.91c-.54,.74-.86,1.65-.86,2.63,0,2.46,1.99,4.45,4.45,4.45s4.45-2,4.45-4.45c0-.98-.32-1.89-.86-2.63h3.36v22.95c0,6.59,5.36,11.94,11.94,11.94h39.69Z"/>
        <path class="cls-3" d="M118.56,37.17H39.48c-1.49,0-2.69,1.2-2.69,2.69v34.25h13.41v-19.55c0-2.2,1.78-3.98,3.98-3.98h60.39c2.71,0,4.91,2.2,4.91,4.91v59.46c0,2.71-2.2,4.91-4.91,4.91H54.18c-2.2,0-3.98-1.78-3.98-3.98v-18.47h-13.41v33.17c0,1.49,1.2,2.69,2.69,2.69H118.56c7.92,0,14.35-6.42,14.35-14.35V51.52c0-7.92-6.42-14.35-14.35-14.35Z"/>
        <g>
          <path class="cls-1" d="M66.56,3.22c-3.3,0-5.97,2.68-5.97,5.98s2.68,5.98,5.97,5.98,5.98-2.68,5.98-5.98-2.68-5.98-5.98-5.98Zm0,10.43c-2.46,0-4.45-2-4.45-4.45s2-4.45,4.45-4.45,4.45,2,4.45,4.45-1.99,4.45-4.45,4.45Z"/>
          <path class="cls-4" d="M66.56,1.7c-1,0-1.95,.2-2.82,.55-2.74,1.11-4.68,3.81-4.68,6.95,0,2.75,1.49,5.16,3.7,6.46,1.11,.66,2.41,1.04,3.8,1.04,4.14,0,7.5-3.37,7.5-7.5s-3.36-7.5-7.5-7.5Zm0,11.95c-2.46,0-4.45-2-4.45-4.45s2-4.45,4.45-4.45,4.45,2,4.45,4.45-1.99,4.45-4.45,4.45Z"/>
        </g>
        <g>
          <path class="cls-1" d="M102.42,3.34c-.39-.08-.79-.12-1.19-.12-3.3,0-5.97,2.68-5.97,5.98s2.67,5.98,5.97,5.98c.41,0,.81-.04,1.19-.12,2.73-.55,4.78-2.97,4.78-5.86s-2.06-5.31-4.78-5.86Zm0,10.15c-.38,.11-.78,.16-1.19,.16-2.46,0-4.45-2-4.45-4.45s2-4.45,4.45-4.45c.41,0,.81,.05,1.19,.16,1.88,.52,3.26,2.25,3.26,4.29s-1.38,3.77-3.26,4.29Z"/>
          <path class="cls-4" d="M104.04,2.25c-.87-.36-1.82-.55-2.82-.55-4.14,0-7.5,3.36-7.5,7.5s3.36,7.5,7.5,7.5c1.39,0,2.69-.38,3.8-1.04,2.21-1.3,3.7-3.72,3.7-6.46,0-3.14-1.94-5.83-4.68-6.95Zm-1.63,11.24c-.38,.11-.78,.16-1.19,.16-2.46,0-4.45-2-4.45-4.45s2-4.45,4.45-4.45c.41,0,.81,.05,1.19,.16,1.88,.52,3.26,2.25,3.26,4.29s-1.38,3.77-3.26,4.29Z"/>
        </g>
        <g>
          <path class="cls-1" d="M12.87,119.9c-.97-1.98-3.01-3.35-5.37-3.35s-4.4,1.37-5.37,3.35c-.39,.79-.61,1.68-.61,2.63,0,3.3,2.68,5.98,5.98,5.98s5.97-2.68,5.97-5.98c0-.94-.22-1.84-.61-2.63Zm-5.37,7.08c-2.46,0-4.45-2-4.45-4.45,0-.98,.32-1.89,.86-2.63,.81-1.11,2.12-1.83,3.59-1.83s2.78,.72,3.59,1.83c.54,.74,.86,1.65,.86,2.63,0,2.46-2,4.45-4.45,4.45Z"/>
          <path class="cls-4" d="M7.5,115.03c-4.14,0-7.5,3.36-7.5,7.5,0,1.38,.37,2.68,1.03,3.79,1.3,2.22,3.72,3.72,6.47,3.72,3.14,0,5.83-1.94,6.95-4.68,.36-.87,.55-1.83,.55-2.82,0-4.14-3.36-7.5-7.5-7.5Zm0,11.95c-2.46,0-4.45-2-4.45-4.45,0-.98,.32-1.89,.86-2.63,.81-1.11,2.12-1.83,3.59-1.83s2.78,.72,3.59,1.83c.54,.74,.86,1.65,.86,2.63,0,2.46-2,4.45-4.45,4.45Z"/>
        </g>
        <g>
          <path class="cls-1" d="M66.92,155.88c-.28,0-.56,.02-.83,.06-2.91,.41-5.14,2.9-5.14,5.92s2.24,5.51,5.14,5.92c.27,.04,.55,.06,.83,.06,3.3,0,5.98-2.68,5.98-5.98s-2.68-5.98-5.98-5.98Zm0,10.43c-.28,0-.56-.03-.83-.08-2.06-.39-3.62-2.2-3.62-4.37s1.56-3.98,3.62-4.37c.27-.05,.55-.08,.83-.08,2.46,0,4.45,2,4.45,4.45s-2,4.45-4.45,4.45Z"/>
          <path class="cls-4" d="M66.92,154.36c-.88,0-1.73,.16-2.51,.44-2.9,1.03-4.99,3.81-4.99,7.06,0,2.67,1.4,5.02,3.52,6.35,1.16,.73,2.52,1.15,3.98,1.15,4.14,0,7.5-3.36,7.5-7.5s-3.36-7.5-7.5-7.5Zm0,11.95c-.28,0-.56-.03-.83-.08-2.06-.39-3.62-2.2-3.62-4.37s1.56-3.98,3.62-4.37c.27-.05,.55-.08,.83-.08,2.46,0,4.45,2,4.45,4.45s-2,4.45-4.45,4.45Z"/>
        </g>
        <g>
          <path class="cls-1" d="M103.38,156.15c-.57-.18-1.17-.27-1.79-.27-3.3,0-5.98,2.68-5.98,5.98s2.68,5.98,5.98,5.98c.62,0,1.23-.1,1.79-.27,2.43-.76,4.19-3.03,4.19-5.71s-1.76-4.94-4.19-5.71Zm0,9.78c-.55,.25-1.16,.38-1.79,.38-2.46,0-4.45-2-4.45-4.45s2-4.45,4.45-4.45c.64,0,1.24,.13,1.79,.38,1.56,.69,2.66,2.25,2.66,4.07s-1.09,3.39-2.66,4.07Z"/>
          <path class="cls-4" d="M104.1,154.8c-.79-.28-1.63-.44-2.51-.44-4.14,0-7.5,3.36-7.5,7.5s3.36,7.5,7.5,7.5c1.47,0,2.83-.42,3.99-1.15,2.11-1.33,3.51-3.67,3.51-6.35,0-3.26-2.08-6.03-4.99-7.06Zm-.72,11.14c-.55,.25-1.16,.38-1.79,.38-2.46,0-4.45-2-4.45-4.45s2-4.45,4.45-4.45c.64,0,1.24,.13,1.79,.38,1.56,.69,2.66,2.25,2.66,4.07s-1.09,3.39-2.66,4.07Z"/>
        </g>
        <g>
          <path class="cls-1" d="M165.37,51.52c-.64-2.61-3-4.54-5.8-4.54s-5.16,1.94-5.8,4.54c-.12,.46-.18,.94-.18,1.44,0,3.3,2.68,5.97,5.98,5.97s5.98-2.68,5.98-5.97c0-.49-.06-.98-.18-1.44Zm-5.8,5.89c-2.46,0-4.45-2-4.45-4.45,0-.5,.08-.98,.24-1.44,.6-1.75,2.26-3.02,4.21-3.02s3.61,1.27,4.21,3.02c.15,.45,.24,.93,.24,1.44,0,2.46-1.99,4.45-4.45,4.45Z"/>
          <path class="cls-4" d="M166.93,51.52c-.67-3.45-3.71-6.07-7.36-6.07-2.45,0-4.62,1.18-5.99,3-.95,1.25-1.51,2.82-1.51,4.51,0,4.14,3.36,7.5,7.5,7.5s7.5-3.36,7.5-7.5c0-.49-.05-.97-.14-1.44Zm-7.36,5.89c-2.46,0-4.45-2-4.45-4.45,0-.5,.08-.98,.24-1.44,.6-1.75,2.26-3.02,4.21-3.02s3.61,1.27,4.21,3.02c.15,.45,.24,.93,.24,1.44,0,2.46-1.99,4.45-4.45,4.45Z"/>
        </g>
      </g>
      <g>
        <path class="cls-2" d="M290.43,82.42h-25.34c-3.51,6.4-8.15,11.42-14.05,15.05-6.15,3.89-12.67,5.77-19.82,5.77-10.91,0-20.2-4.14-27.85-12.29-7.9-8.28-11.92-18.44-11.92-30.61V25.47h14.18V58.71c0,8.15,2.13,15.18,6.27,21.07,4.89,6.65,11.29,10.04,19.32,10.04s14.3-3.39,19.19-10.04c4.14-5.9,6.15-12.92,6.15-21.07V25.47h14.18V60.34c0,2.63-.25,5.14-.75,7.78h20.45v14.3ZM238.37,13.92h-13.8V0h13.8V13.92Z"/>
        <path class="cls-2" d="M298.71,109.89h-13.8v-14.05h13.8v14.05Zm44.66-27.47h-57.83v-14.3h13.42c4.14,0,7.03-1.38,8.53-4.27,1-1.88,1.51-5.14,1.51-9.53V25.47h13.93v28.1c0,7.4-1,12.17-3.14,14.55h23.58v14.3Zm-20.95,27.47h-13.8v-14.05h13.8v14.05Z"/>
        <path class="cls-2" d="M340.36,68.12h10.29c7.15,0,10.66-4.89,10.66-14.8V25.47h14.18v27.35c0,7.4-.75,12.17-2.26,14.55v.75h13.05c7.15,0,10.66-4.64,10.66-13.92V25.47h14.18v27.35c0,8.15-1,13.3-2.89,15.3h13.67c7.15,0,10.66-4.64,10.66-13.8V25.47h14.18v27.1c0,18.06-10.04,29.86-24.34,29.86h-82.04v-14.3Z"/>
        <path class="cls-2" d="M564.9,60.34c0,23.08-17.69,42.9-39.52,42.9s-39.77-19.32-39.77-42.9v-12.29h14.18v10.66c0,17.19,10.29,31.11,25.59,31.11s25.34-13.67,25.34-31.11V1.51h14.17V60.34Z"/>
        <path class="cls-2" d="M591.75,82.42h-13.92V1.38h13.92V82.42Z"/>
        <path class="cls-2" d="M663.13,82.42h-59.59v-14.3h45.41c0-16.43-6.4-25.97-19.07-28.73-3.89-.88-8.15-1.13-12.67-1.13v-12.8c6.9,0,11.29,.13,13.05,.25s4.27,.63,7.53,1.76c16.81,5.65,25.22,19.19,25.34,40.65v14.3Z"/>
      </g>
      <g>
        <path class="cls-2" d="M230.68,123.82c4.14,1.77,7.43,4.44,9.89,8,2.46,3.56,3.69,7.89,3.69,13s-1.23,9.43-3.69,13c-2.46,3.56-5.76,6.23-9.89,8-4.14,1.77-8.66,2.65-13.58,2.65h-23.16v-5.72h8.89v-35.85h-8.89v-5.72h23.16c4.92,0,9.45,.89,13.58,2.65Zm.35,34.54c3.86-2.92,5.79-7.43,5.79-13.55s-1.93-10.69-5.79-13.58c-3.86-2.9-8.73-4.34-14.62-4.34h-6.48v35.85h6.48c5.88,0,10.76-1.46,14.62-4.38Z"/>
        <path class="cls-2" d="M314.03,162.74v5.72h-22.54v-5.72h7.72l-4.41-11.03h-20.41l-4.34,11.03h8.27v5.72h-22.41v-5.72h7.38l15.37-35.92h-7.1v-5.65h26.61v5.65h-7.03l15.51,35.92h7.38Zm-21.3-16.2l-7.86-19.72h-.55l-7.86,19.72h16.27Z"/>
        <path class="cls-2" d="M370.77,152.05v16.41h-44.33v-5.72h8.89v-35.85h-8.89v-5.72h24.82v5.72h-8.83v35.85h21.65v-10.69h6.69Z"/>
        <path class="cls-2" d="M453.37,147.71c3.08,2.3,4.62,5.35,4.62,9.17,0,2.48-.68,4.68-2.03,6.58-1.36,1.91-3.23,3.37-5.62,4.38-2.39,1.01-5.08,1.52-8.07,1.52-3.26,0-6.37-.69-9.31-2.07-2.94-1.38-5.65-3.31-8.14-5.79v6.89h-6.27v-15.93l4-.21c2.44,3.54,5.4,6.32,8.89,8.34,3.49,2.02,6.96,3.03,10.41,3.03,2.57,0,4.68-.55,6.31-1.65,1.63-1.1,2.45-2.6,2.45-4.48,0-2.07-1.15-3.85-3.45-5.34-2.3-1.49-6.21-2.95-11.72-4.38-5.75-1.52-9.95-3.5-12.62-5.96-2.67-2.46-4-5.48-4-9.07,0-2.48,.68-4.68,2.03-6.58,1.36-1.91,3.18-3.38,5.48-4.41,2.3-1.03,4.8-1.55,7.51-1.55,6.39,0,11.56,2.34,15.51,7.03v-6.07h6.27v15.72l-3.86,.21c-1.93-3.68-4.3-6.46-7.1-8.34-2.8-1.88-5.88-2.83-9.24-2.83-2.71,0-4.93,.59-6.65,1.76-1.72,1.17-2.58,2.75-2.58,4.72s1.04,3.76,3.14,5.2c2.09,1.45,5.53,2.82,10.31,4.1,6.07,1.7,10.64,3.7,13.72,6Z"/>
        <path class="cls-2" d="M514.25,136.34v-9.45h-24.54v15.1h10.89v-6.41h5.52v18.06h-5.52v-6.41h-10.89v15.51h24.54v-9.45h6.34v15.17h-46.74v-5.72h8.82v-35.85h-8.82v-5.72h46.74v15.17h-6.34Z"/>
        <path class="cls-2" d="M578.29,136.34v-9.45h-24.54v15.1h10.89v-6.41h5.52v18.06h-5.52v-6.41h-10.89v15.51h24.54v-9.45h6.34v15.17h-46.74v-5.72h8.82v-35.85h-8.82v-5.72h46.74v15.17h-6.34Z"/>
        <path class="cls-2" d="M662.89,126.89h-8.62v41.99l-3.52,.07-33.16-37.71v31.51h8.48v5.72h-24.13v-5.72h8.89v-35.85h-8.89v-5.72h15.65l30.06,34.95v-29.23h-8.89v-5.72h24.13v5.72Z"/>
      </g>
    </g>
  </g>
</svg>